<svg width="48" height="28" viewBox="0 0 48 28" fill="none" xmlns="http://www.w3.org/2000/svg">
<path d="M1.05105 14.5342L45.965 14.2997C46.504 14.2969 46.9396 13.9388 46.9373 13.5005C46.935 13.0621 46.4957 12.7086 45.9568 12.7114L1.04276 12.9458C0.503791 12.9486 0.0681959 13.3067 0.0704841 13.7451C0.0727724 14.1835 0.512082 14.537 1.05105 14.5342Z" fill="white"/>
<path d="M29.586 1.44507L45.2745 14.0698C45.6569 14.3775 46.276 14.3743 46.6551 14.0626C47.0343 13.7509 47.0317 13.2474 46.6493 12.9396L30.9607 0.31493C30.7685 0.161891 30.5182 0.0853185 30.2682 0.0866234C30.0182 0.0879283 29.7687 0.167035 29.58 0.322137C29.201 0.633913 29.2036 1.13735 29.586 1.44507Z" fill="white"/>
<path d="M29.7187 26.8576C30.1011 27.1653 30.7201 27.1621 31.0993 26.8504L46.6552 14.0626C47.0343 13.7509 47.0317 13.2474 46.6493 12.9397C46.4571 12.7866 46.2068 12.71 45.9568 12.7113C45.7068 12.7127 45.4573 12.7918 45.2687 12.9469L29.7128 25.7347C29.3336 26.0464 29.3363 26.5499 29.7187 26.8576Z" fill="white"/>
</svg>
