<svg width="47" height="27" viewBox="0 0 47 27" fill="none" xmlns="http://www.w3.org/2000/svg">
<path d="M45.8915 12.7052H0.976923C0.437948 12.7052 0.000488281 13.061 0.000488281 13.4994C0.000488281 13.9377 0.437948 14.2935 0.976923 14.2935H45.8915C46.4305 14.2935 46.868 13.9377 46.868 13.4994C46.868 13.061 46.4305 12.7052 45.8915 12.7052Z" fill="white"/>
<path d="M17.2887 25.6451L1.66626 12.9387C1.28547 12.629 0.666396 12.629 0.285598 12.9387C-0.0951994 13.2484 -0.0951994 13.7519 0.285598 14.0617L15.9081 26.7681C16.0995 26.9221 16.3494 27 16.5994 27C16.8494 27 17.0993 26.9222 17.2888 26.7681C17.6695 26.4583 17.6695 25.9549 17.2887 25.6451Z" fill="white"/>
<path d="M17.2887 0.232289C16.9079 -0.0774296 16.2888 -0.0774296 15.908 0.232289L0.285598 12.9387C-0.0951994 13.2484 -0.0951994 13.7519 0.285598 14.0617C0.477004 14.2157 0.726902 14.2936 0.976892 14.2936C1.22688 14.2936 1.47678 14.2158 1.66626 14.0617L17.2887 1.35524C17.6695 1.04552 17.6695 0.542007 17.2887 0.232289Z" fill="white"/>
</svg>
